# xmcd CD database file
#
# Track frame offsets:
#	150
#	19374
#	37151
#	54305
#	85289
#	118357
#	154367
#	190658
#	214973
#	240856
#	271945
#	297120
#	319613
#	337641
#
# Disc length: 4769 seconds
#
# Revision: 0
# Processed by: cddbd v1.5.2PL0 Copyright (c) Steve Scherf et al.
# Submitted via: CDex 1.70beta2
#
DISCID=c4129f0e
DTITLE=Michael Connelly - 9 Dragons Disc 3
DYEAR=2009
DGENRE=Audio Book
TTITLE0=9 Dragons Disc 3-01
TTITLE1=9 Dragons Disc 3-02
TTITLE2=9 Dragons Disc 3-03
TTITLE3=9 Dragons Disc 3-04
TTITLE4=9 Dragons Disc 3-05
TTITLE5=9 Dragons Disc 3-06
TTITLE6=9 Dragons Disc 3-07
TTITLE7=9 Dragons Disc 3-08
TTITLE8=9 Dragons Disc 3-09
TTITLE9=9 Dragons Disc 3-10
TTITLE10=9 Dragons Disc 3-11
TTITLE11=9 Dragons Disc 3-12
TTITLE12=9 Dragons Disc 3-13
TTITLE13=9 Dragons Disc 3-14
EXTD=YEAR: 2009
EXTT0=
EXTT1=
EXTT2=
EXTT3=
EXTT4=
EXTT5=
EXTT6=
EXTT7=
EXTT8=
EXTT9=
EXTT10=
EXTT11=
EXTT12=
EXTT13=
PLAYORDER=
